<svg xmlns="http://www.w3.org/2000/svg" viewBox="0 0 458 458">
  <path
    d="M458,229c0,29.83-23.25,54.82-34.01,80.76-11.15,26.89-12.8,60.9-33.07,81.16s-54.27,21.92-81.16,33.07c-25.94,10.76-50.93,34.01-80.76,34.01s-54.82-23.25-80.76-34.01-60.9-12.8-81.16-33.07c-20.26-20.26-21.92-54.27-33.07-81.16S0,258.83,0,229s23.25-54.82,34.01-80.76c11.15-26.89,12.8-60.9,33.07-81.16s54.27-21.92,81.16-33.07C174.18,23.25,199.17,0,229,0s54.82,23.25,80.76,34.01c26.89,11.15,60.9,12.8,81.16,33.07,20.26,20.26,21.92,54.27,33.07,81.16,10.76,25.94,34.01,50.93,34.01,80.76h0Z"
  />
</svg>