<svg xmlns="http://www.w3.org/2000/svg" viewBox="0 0 246.49 260.53">
  <path
    d="M230.4,243.01c2.93-5.37,5.7-10.99,7.94-16.64,.23-.58,.51-1.17,.68-1.77,8.27-22.38,9.29-46.77,4.93-70.13-.07,0-.14,0-.22,.01-.05,0-.68-3.12-.75-3.41-.27-1.14-.55-2.27-.85-3.4-.6-2.25-1.26-4.47-1.99-6.68-.73-2.19-1.52-4.36-2.37-6.51-.85-2.13-1.76-4.24-2.73-6.33-.97-2.07-1.99-4.12-3.07-6.14-1.08-2.01-2.21-3.99-3.4-5.94-1.19-1.94-2.43-3.86-3.71-5.73-1.29-1.88-2.63-3.72-4.01-5.52-1.39-1.8-2.82-3.57-4.3-5.3-1.46-1.71-2.94-3.45-4.53-5.04-1.19-1.18-1.48-3.25-1-4.8,.82-2.63,3.15-4.29,5.11-6.07,2.01-1.82,4.01-3.65,6.02-5.47,2.02-1.84,4.04-3.68,6.06-5.51,.83-.76,1.66-1.51,2.49-2.27,1.43-1.3,2.41-3,2.82-4.89l4.87-22.39c.41-1.9,.22-3.89-.56-5.68l-9-20.67c-.79-1.82-2.15-3.34-3.87-4.33L205.65,1.24c-1.72-.99-3.71-1.41-5.68-1.18l-22.4,2.54c-1.94,.22-3.75,1.04-5.2,2.35l-16.95,15.42c-1.43,1.3-2.41,3-2.82,4.89-.28,1.28-.56,2.55-.83,3.83-.6,2.74-1.19,5.48-1.79,8.22-.56,2.58-1.12,5.17-1.69,7.75-.59,2.69-.87,5.71-3.25,7.51-2.7,2.06-6.99,.7-9.99,.13-12.04-2.26-24.42-2.89-36.61-1.7-3.53,.34-7.04,.84-10.52,1.48-3.5,.65-6.98,1.46-10.41,2.42-3.46,.97-6.88,2.1-10.24,3.38-3.4,1.3-6.75,2.76-10.02,4.37-3.33,1.64-6.58,3.44-9.74,5.39-3.23,1.99-6.37,4.14-9.4,6.43-3.12,2.36-6.12,4.87-9,7.51-2.98,2.74-5.84,5.61-8.55,8.61-2.83,3.12-5.51,6.38-8.05,9.75-2.65,3.52-5.15,7.17-7.48,10.91-1.32,2.12-2.6,4.27-3.82,6.44-2.47,4.27-1,9.75,3.28,12.22l92.67,53.5,.44,.25c2.53,1.46,3.4,4.7,1.94,7.23-4.43,7.67-8.84,15.35-13.24,23.03-4.29,7.48-8.52,15.06-14.94,20.96-5.51,5.06-12.77,7.9-20.28,7.48-8.04-.45-15.36-4.65-20.46-10.77-2.28-2.74-4.77-6.12-8.41-7.05-3.41-.86-8.65,.68-10.13,4.12-.8,1.86-.37,4.03,.44,5.88,6.29,14.32,19.89,24.04,35.42,25.74,9.21,1.01,18.7-.89,26.88-5.25,11.74-6.25,18-18.32,24.51-29.31,4.09-6.9,8.04-13.88,12.05-20.82l3.11-5.38c1.46-2.53,4.7-3.4,7.23-1.94l.61,.35,51.96,30,.03-.04,5.33,3.08c4.71,2.72,10.74,1.11,13.46-3.61,1.8-3.11,1.73-7.11-.21-10.14-3.43-5.36-14.31-6.31-14.15-13.93,.06-2.97,1.79-5.88,3.08-8.46,4.42-8.82,8.04-17.88,11.03-27.14,3.91-12.1,6.73-24.54,8.83-37.21,.24-1.48,.33-3.08,1.03-4.44,.38-.75,1.05-1.42,1.79-1.83,.77-.42,1.43-.33,2.23-.06,1.14,.39,2.19,1.03,3.11,1.79,2.23,1.85,3.85,4.38,5.17,6.93,1.63,3.14,2.87,6.49,3.93,9.86,1.14,3.61,2.07,7.28,2.89,10.97,.1,.43,.19,.87,.29,1.3h-.05c.62,.02,1.85,9.65,1.98,10.64,.48,3.59,.79,7.21,.9,10.83,.23,7.15-.27,14.31-1.48,21.36-1.12,6.54-2.85,12.98-5.14,19.22-1.47,4.03-3.01,8.13-5.09,11.89-2.99,5.43-8.37,11.7-4.15,17.92,1.37,2.01,3.42,3.13,5.47,4.31,5.93,3.42,11.63-.57,14.57-5.81,.44-.78,.87-1.56,1.3-2.35ZM114.01,80.21c-9.92,8.15-19.28,16.81-27.81,26.25-6.53,7.22-12.56,14.89-17.99,23.12-1.59,2.41-3.25,5.36-5.79,6.9-3.84,2.32-8.71-.12-12.16-2.06-5.59-3.14-11.01-6.55-16.55-9.77-3.24-1.88-8.14-3.88-7.75-8.41,.37-4.26,3.83-8.13,6.6-11.11,4.1-4.42,8.8-8.29,13.6-11.9,5.18-3.9,10.59-7.78,16.37-10.76,6.76-3.48,14.11-5.85,21.28-8.1,3.61-1.13,7.25-2.16,10.95-2.98,3.45-.77,6.97-1.37,10.51-1.52,2.87-.13,5.87,0,8.59,1.02,1.13,.42,2.2,1,3.11,1.8,.63,.55,1.04,1.08,1.06,1.96,.02,.84-.23,1.76-.69,2.46-.83,1.28-2.17,2.16-3.33,3.11Zm91.99,8.21l-.08,.02h-.01l.09-.02Zm-26.79-61.43c1.83-1.65,2.95-4.73,5.22-5.75s5.26,.23,7.77-.03c2.51-.26,5.11-2.11,7.6-1.58,2.49,.53,4.06,3.25,6.3,4.54,2.24,1.3,5.44,1.36,7.08,3.19,1.65,1.83,1.42,5.1,2.43,7.37,1.01,2.27,3.59,4.24,3.86,6.74,.27,2.5-1.83,4.9-2.37,7.4-.54,2.49,.44,5.47-.85,7.72s-4.43,2.95-6.26,4.6c-1.83,1.65-2.95,4.73-5.22,5.75-2.27,1.02-5.26-.23-7.77,.03s-5.11,2.12-7.6,1.58c-2.49-.53-4.06-3.25-6.3-4.54s-5.44-1.36-7.08-3.19-1.42-5.1-2.43-7.37c-1.01-2.27-3.59-4.24-3.86-6.74-.27-2.5,1.83-4.9,2.37-7.4,.54-2.49-.44-5.47,.85-7.72s4.43-2.95,6.26-4.6Zm-26.68,166.09c-3.19-1.81-6.39-3.63-9.58-5.44-12.78-7.25-25.56-14.51-38.34-21.76-6.38-3.62-12.83-7.16-19.16-10.88-4.74-2.79-3.79-6.72-1.06-10.82,14.43-21.66,50.46-63.47,78.62-58.96,34.16,9.11,10.87,82.11-.83,103.96-2.1,4.6-4.98,6.55-9.65,3.9Z"
  />
  </svg>