<svg xmlns="http://www.w3.org/2000/svg" viewBox="0 0 269.87 357.7">
  <path d="M269.77,159c0-3.7-.1-7.4-.6-11-2-15-6.3-29.3-12.9-42.8-3.2-6.5-6.8-12.7-11-18.6-7.8-11.1-17-20.8-27.6-29.2-8.7-6.9-18.1-12.6-28.3-17.2-11.2-5-22.9-8.4-35.1-10.2-1.3-.2-2.7-.2-4-.8-4.5-2.1-6.8-5.6-6.9-10.5-.1-4.8,0-9.6,0-14.4,0-2.5-1-3.8-3.3-4.3h-10.5c-1.8,.3-2.7,1.5-3.1,3.1-.2,.8-.2,1.5-.2,2.3v14.4c0,4.8-4.1,9.5-8.9,10.1-4.5,.6-9.1,1.4-13.5,2.5-11.9,2.9-23.2,7.3-33.9,13.3-10.6,6-20.3,13.3-29,21.8-3.2,3.1-6.2,6.4-9,9.8-8.2,9.9-15,20.7-20.2,32.5-3.6,8.2-6.5,16.7-8.4,25.4-1.8,8-3.1,16-3.2,24.3,0,1.1-.1,2.2-.1,3.4,0,1.6-.2,3.3,.1,4.9,.1,.2,.1,.3,.2,.5,.6,2,2,3.2,4.1,3.7,.7,.2,1.3,.1,2,.1H114.17c1.4,0,2.7,.3,3.9,.7,4.8,1.6,8.7,6.4,8.7,12.6v101.3c-.3,2.5-2.3,4.4-4.8,4.5h-2.3c-1.3,0-2.6,.2-3.8,.6-4.8,1.6-8,6-8.1,11.1v42.7c0,3.4,1.2,6.3,3.7,8.7,2,1.9,4.4,2.9,7.1,3.3,.3,.1,.6,.1,.9,.1h28.9c.3,0,.6,0,.9-.1,1.6-.3,3.3-.6,4.7-1.5,4-2.4,6.1-5.9,6.1-10.5v-42.6c0-4-1.7-7.1-4.9-9.4-2.1-1.5-4.5-2.2-7-2.3-2.1,0-4.5-1.5-5-4.2-.1-.6-.1-1.2-.1-1.9v-100.4c.1-2.4,.8-4.7,2.1-6.7,2.7-3.9,6.4-5.9,11.1-5.9h108.5c1.9-.1,3.3-.9,4.4-2.5,.3-.5,.3-1.1,.7-1.6v-7.6c-.2-.5-.1-1-.1-1.5h0Zm-206.9-29.3c-1.1,6.8-2.1,13.6-3,20.4-.1,1.1-.5,2-1.3,2.7-.7,.7-1.5,1.4-2.4,2-1.1,.7-2.3,1.1-3.7,1.1-4.5-.1-9,0-13.5,0h-13.5c-.6,0-1.2,0-1.7-.2-1.9-.6-2.9-2.1-2.9-4.2,0-3.1,.1-6.3,.4-9.4,.6-6.1,1.7-12.1,3.4-18,4.9-17.2,13.6-32.1,25.9-44.9,10.1-10.5,22-18.7,35.3-24.7,.3-.1,.6-.3,.9-.4,1.5-.4,3.1,.7,3.1,2.3,0,.8-.2,1.6-.7,2.4-4.4,6.5-8,13.5-11.1,20.7-3.7,8.8-7.2,17.7-10,26.8-2.2,7.7-3.8,15.5-5.2,23.4h0Zm82.6,170.1c.8,0,1.6,0,2.4,.3,1.7,.6,2.7,1.9,3,3.6,.1,.7,.1,1.3,.1,2v37.8c0,2.2-1.3,4.2-3.5,4.8-.3,.1-.7,.1-1.1,.1h-25.2c-2.3,0-4.3-1.7-4.6-4-.3-2.2,1-4.3,3.1-5.1,.6-.2,1.2-.2,1.9-.2h8.4c.5,0,1,0,1.5-.2,1.4-.5,2.2-1.8,2.1-3.1-.2-1.5-1.3-2.6-2.8-2.6h-4.2c-2.2,0-4.3-.1-6.5,0-2,.1-3.5-1.5-3.5-3.2,0-2,1.7-3.4,3.5-3.3,3.4,.1,6.7,0,10.1,0,.6,0,1.2,0,1.7-.3,1.1-.6,1.7-1.5,1.7-2.7s-.8-2.3-1.9-2.7c-.6-.2-1.1-.2-1.7-.2h-10.2c-1.5,0-2.7-1-3-2.4-.3-1.6,.3-3,1.6-3.7,.6-.3,1.4-.4,2.1-.4h10.3c1.9,.2,3-1.4,3-2.7,0-1.7-1.1-2.7-3-2.7h-9c-1.2,0-2.4-.2-3.4-1-1.6-1.3-2-2.9-1.6-4.8,.4-1.8,2-3.1,3.8-3.4,.5-.1,1.1-.1,1.6-.1,7.7,.2,15.5,.2,23.3,.2h0Zm48.4-147.4c-.2,.6-.5,1.2-.9,1.8-.8,1.2-1.7,1.8-3.3,1.8-18.1-.1-36.2-.1-54.2-.1h-54.5c-1.2,0-1.9-.4-2.6-1.2-1.7-2.2-2.3-4.7-2-7.4,.9-7.1,1.8-14.2,2.9-21.2,1.7-10.8,4.5-21.3,8.5-31.5,2.7-7,5.4-14,9-20.6,5.1-9.3,11.9-17.2,20.7-23.2,3.6-2.4,7.4-4.3,11.7-5.3,5.5-1.3,10.9-.6,16.1,1.2,8.7,3,15.5,8.5,20.9,15.9,3.2,4.4,5.9,9.1,8.6,13.8,3.7,6.4,7.1,13,9.8,19.9,1.8,4.6,2.9,9.4,4.1,14.2,1.5,6.3,3.1,12.5,4.2,18.9,1,5.9,1.8,11.8,1.8,17.8-.1,1.8-.2,3.5-.8,5.2h0Zm48.3,3.5h-12c-3.8,0-7.6-.1-11.3,0-2.4,.1-4.3-.8-5.9-2.4-.4-.4-.8-.8-1.2-1.3-.8-.8-1.1-1.8-1.1-2.9-.4-7-1.6-13.8-3-20.6-2-9.3-4.3-18.4-6.8-27.6-2.2-7.9-5.6-15.2-9.5-22.4-3.5-6.4-7.2-12.7-11-19-.5-.8-.6-1.6-.6-2.4,0-1.6,1.7-2.8,3.2-2.2,.8,.3,1.6,.7,2.4,1.1,22,11,38.9,27.1,50.1,49.1,4.8,9.3,8,19.2,9.7,29.5,.9,5.5,1.4,11,1.4,16.5-.1,2.8-1.7,4.6-4.4,4.6h0Z" />
</svg>
