<svg xmlns="http://www.w3.org/2000/svg" viewBox="0 0 219.9 160.9" xml:space="preserve" preserveAspectRatio="none">
  <path class="edge" d="M208.1,0H11.8C5.3,0,0,5.2,0,11.7v137.5c0,6.5,5.3,11.7,11.8,11.7h196.3c6.5,0,11.8-5.2,11.8-11.7V11.8 C219.9,5.3,214.6,0,208.1,0L208.1,0z M34,149.4c0,2-1.6,3.6-3.6,3.6h-6.5c-2,0-3.6-1.6-3.6-3.6v-1.3c0-2,1.6-3.6,3.6-3.6h6.5 c2,0,3.6,1.6,3.6,3.6V149.4z M197.7,149.3c0,2-1.6,3.6-3.6,3.6h-23.4c-2,0-3.6-1.6-3.6-3.6V148c0-2,1.6-3.6,3.6-3.6h23.4 c2,0,3.6,1.6,3.6,3.6V149.3z M199.1,120.4c0,6.5-5.3,11.8-11.9,11.8H32.5c-6.6,0-11.9-5.3-11.9-11.8v-88c0-6.5,5.3-11.8,11.9-11.8 h154.7c6.5,0,11.9,5.3,11.9,11.8L199.1,120.4L199.1,120.4L199.1,120.4z" />
  <path class="button1" d="M30.5,153h-6.6c-2,0-3.5-1.6-3.5-3.5V148c0-2,1.6-3.5,3.5-3.5h6.6c2,0,3.5,1.6,3.5,3.5v1.4C34,151.4,32.4,153,30.5,153z" />
  <path class="button2" d="M194.1,152.9h-23.5c-2,0-3.6-1.6-3.6-3.6V148c0-2,1.6-3.6,3.6-3.6h23.5c2,0,3.6,1.6,3.6,3.6v1.4 C197.7,151.3,196.1,152.9,194.1,152.9z" />
</svg>
