<svg xmlns="http://www.w3.org/2000/svg" viewBox="0 0 40 40">
  <path d="M17.93,19.78c.08,1.4,.17,2.69,.36,3.81,1.09-1.15,2.04-2.6,2.74-4.2-.39-.06-1.85,.06-3.11,.39Z" />
  <path d="M11.02,25.58c0,1.6,1.2,1.54,1.57,1.51,.87-.03,1.82-.42,2.8-1.06-.31-1.48-.5-3.22-.64-5.12-2.21,1.09-3.72,2.8-3.72,4.68Z" />
  <path d="M33,0H7C3.14,0,0,3.14,0,7v25.99c0,3.87,3.14,7,7,7h25.99c3.87,0,7-3.14,7-7V7c0-3.87-3.14-7-7-7Zm-12.15,32.35c-.22-.73-.92-2.07-1.46-2.83,5.04-.56,8.34-2.24,8.34-5.49,0-.92-.31-3.11-3.33-4.09-1.23,2.8-3.11,5.4-5.29,7.28,.11,.36,.25,.67,.39,.95l-2.88,1.85c-.14-.28-.28-.59-.39-.92-1.4,.78-2.94,1.29-4.51,1.29-2.46,0-4.09-1.57-4.09-4.17,0-3.86,2.97-6.92,6.94-8.54-.06-1.2-.06-2.44-.06-3.72-2.1,.06-4.37,.11-5.49,.08l-.17-3.28c1.29,.03,3.64,.03,5.71,.03,.06-1.2,.08-2.6,.14-3.78l4.4,.34c-.06,.28-.28,.5-.76,.56-.08,.81-.14,1.88-.22,2.77,3.05-.14,6.89-.5,10-1.18l.31,3.39c-3.08,.56-7.11,.84-10.47,.95-.03,.98-.06,1.93-.06,2.86,1.18-.28,2.88-.45,4.2-.36,.11-.42,.2-.84,.22-1.26l3.44,.87c-.08,.31-.17,.62-.22,.92,4.06,1.12,5.85,3.95,5.85,7.08,0,4.48-3.36,7.5-10.56,8.4Z" />
</svg>
