<svg xmlns="http://www.w3.org/2000/svg" viewBox="0 0 219.9 160.9" xml:space="preserve" preserveAspectRatio="none">
  <path class="left-eye" d="M81,47.5h10.3c1.9,0,3.4,1.5,3.4,3.4V70c0,1.9-1.5,3.4-3.4,3.4H81c-1.9,0-3.4-1.5-3.4-3.4V50.9C77.6,49,79.1,47.5,81,47.5z" />
  <path class="right-eye" d="M126.9,47.5h10.2c1.9,0,3.4,1.5,3.4,3.4V70c0,1.9-1.5,3.4-3.4,3.4h-10.3c-1.9,0-3.4-1.5-3.4-3.4V50.9 C123.5,49,125,47.5,126.9,47.5z" />
  <path class="mouth" d="M64.2,96.6v-5.4c0-1.6,1.3-2.8,2.8-2.8h86c1.6,0,2.8,1.3,2.8,2.8v5.4c0,1.6-1.3,2.8-2.8,2.8H67 C65.5,99.4,64.2,98.1,64.2,96.6z" />
  <path class="tongue" d="M134.4,99.3c2.2,0.4,3.7,1.7,3.6,4.8c-0.1,4.1-2.4,6.5-6.6,6.2c-4-0.2-5.5-2.9-5.5-6.6c0-3,1.5-4.1,3.5-4.4h-19.3 c4.5,0,7.2,0.9,7.4,6.4c0.4,8,7,13.8,14.5,13.9c7.4,0.1,13.6-5.6,14.6-13.8c0.3-2.3-0.2-4.8,2.2-6.2c0.2-0.1,0.4-0.2,0.5-0.4 L134.4,99.3L134.4,99.3L134.4,99.3z" />
  <path class="edge" d="M208.1,0H11.8C5.3,0,0,5.2,0,11.7v137.5c0,6.5,5.3,11.7,11.8,11.7h196.3c6.5,0,11.8-5.2,11.8-11.7V11.8 C219.9,5.3,214.6,0,208.1,0L208.1,0z M34,149.4c0,2-1.6,3.6-3.6,3.6h-6.5c-2,0-3.6-1.6-3.6-3.6v-1.3c0-2,1.6-3.6,3.6-3.6h6.5 c2,0,3.6,1.6,3.6,3.6V149.4z M197.7,149.3c0,2-1.6,3.6-3.6,3.6h-23.4c-2,0-3.6-1.6-3.6-3.6V148c0-2,1.6-3.6,3.6-3.6h23.4 c2,0,3.6,1.6,3.6,3.6V149.3z M199.1,120.4c0,6.5-5.3,11.8-11.9,11.8H32.5c-6.6,0-11.9-5.3-11.9-11.8v-88c0-6.5,5.3-11.8,11.9-11.8 h154.7c6.5,0,11.9,5.3,11.9,11.8L199.1,120.4L199.1,120.4L199.1,120.4z" />
  <path class="button1" d="M30.5,153h-6.6c-2,0-3.5-1.6-3.5-3.5V148c0-2,1.6-3.5,3.5-3.5h6.6c2,0,3.5,1.6,3.5,3.5v1.4C34,151.4,32.4,153,30.5,153z" />
  <path class="button2" d="M194.1,152.9h-23.5c-2,0-3.6-1.6-3.6-3.6V148c0-2,1.6-3.6,3.6-3.6h23.5c2,0,3.6,1.6,3.6,3.6v1.4 C197.7,151.3,196.1,152.9,194.1,152.9z" />
</svg>
