<svg xmlns="http://www.w3.org/2000/svg" viewBox="0 0 50 38">
  <path d="M25.02,0C16.1,0,7.64,3.39,1.14,9.53c-.38,.36-.76,.72-1.14,1.08,1.57,1.58,3.14,3.16,4.71,4.74,.35,.35,.69,.7,1.04,1.04,.36-.33,.71-.66,1.07-1,4.97-4.63,11.42-7.2,18.18-7.2s13.22,2.56,18.18,7.2l1.07,1,1.04-1.04,3.61-3.63,1.11-1.11-1.14-1.08C42.38,3.39,33.91,0,25.02,0Z" />
  <path d="M40.8,18.18c-4.33-3.98-9.93-6.16-15.76-6.16h-.99v.02c-5.5,.23-10.73,2.39-14.82,6.14l-1.17,1.08,1.13,1.13,3.65,3.67,1.02,1.02,1.07-.95c2.82-2.52,6.41-3.91,10.08-3.91s7.28,1.39,10.11,3.91l1.07,.95,1.02-1.02,3.65-3.67,1.13-1.13-1.18-1.08Z" />
  <path d="M25.03,38l1.18-1.33,6.51-7.29,1.31-1.47-1.43-1.33c-1.9-1.59-3.99-2.79-7.58-2.79s-5.53,1.31-7.58,2.79l-1.42,1.33,1.31,1.47,6.51,7.29,1.2,1.33Z" />
</svg>
