<svg xmlns="http://www.w3.org/2000/svg" viewBox="0 0 16 16">
  <path d="M8,0C3.58,0,0,3.58,0,8s3.58,8,8,8,8-3.58,8-8S12.42,0,8,0Zm3.99,10.82c.53,.46,.19,1.38-.51,1.42h-.1c-.71-.15-1.1-.93-1.65-1.37-.6-.53-1.15-1.27-1.77-1.7-.94,.94-1.87,1.87-2.81,2.81-.15,.15-.33,.24-.54,.26h-.1c-.66-.04-1.03-.9-.55-1.37,.95-.95,1.9-1.89,2.84-2.84-.77-.99-1.91-1.91-2.8-2.87-.53-.46-.18-1.39,.51-1.41h.1c.21,.02,.39,.11,.54,.26,.96,.9,1.89,2.02,2.88,2.81,.93-.93,1.87-1.87,2.8-2.8,.15-.15,.33-.25,.55-.26h.1c.69,.03,1.04,.94,.52,1.4-.94,.94-1.88,1.87-2.81,2.81,.79,.98,1.91,1.9,2.8,2.87Z" />
</svg>
