<svg xmlns="http://www.w3.org/2000/svg" viewBox="0 0 450 140">
  <path
    d="M202.44,82.49c-.08,4.7-.17,9.38-.2,14.08-.03,2.84-2.79,2.35-4.91,2.42l-8.09,.31c-1.99,.08-3.5,.16-3.42-2.25,.11-3.55,.15-7.1,.28-10.65,.07-1.93,.35-3.84,.16-5.78-.19-1.89-.82-2.21-2.38-1.06-1.72,1.27-3.19,2.84-4.89,4.14-1.28,.98-2.62,1.91-3.87,2.95s-1.86,.92-2.92-.46c-2.33-3.05-4.62-6.14-6.89-9.24-.85-1.17-.68-2.18,.51-3.01,5.77-3.98,11.13-8.52,16.77-12.68,.73-.54,1.37-1.13,1.73-1.97,.71-1.64-.08-3.09-1.83-3.11-3.46-.04-6.93-.15-10.38,.15-.89,.08-1.77,.09-2.64,.04-1.65-.08-2.06-.45-2.09-2.17-.05-4-.06-8.01,0-12.02,.02-1.7,.85-2.43,2.51-2.38,4.54,.15,9.08-.29,13.62,.05,2.42,.18,2.43-2.71,2.34-4.42-.2-3.77-.31-7.55-.53-11.31-.09-1.57-.42-5.31,1.98-5.3,4.78,.02,9.55-.03,14.33-.04,.87,0,1.95-.07,2.39,.82,.5,1.02,.22,2.35,.16,3.43-.19,3.39-.18,6.8-.25,10.21s-.23,7.01-.23,10.51c-.02,.79,0,1.49,.77,1.91,.82,.45,1.37-.07,1.96-.55,3.91-3.15,7.83-6.28,11.74-9.43,1.09-.87,2.15-1.8,3.27-2.63,3.65-2.68,8.81-2.24,13.05-1.95,2.97,.2,9.81-.47,9.38,4.25-.58,6.2-.78,12.43-1.39,18.63-.83,8.46-1.42,17.04-1.28,25.55,.02,1.2,.06,2.42,.37,3.56,.65,2.36,2.36,3.71,4.8,3.47,1.05-.1,1.99-.51,2.97-.81,1.47-.45,2.11-.18,2.68,1.06,.96,2.11,.93,2.73-.53,3.62-3.89,2.37-8.1,3.92-12.63,4.42-1.82,.21-3.66,.48-5.5,.03-3.08-.75-5.44-2.25-6.81-5.36-1.58-3.57-1.69-7.45-1.61-11.3,.19-8.08,.52-16.13,.52-24.21,0-.37,.03-.75-.03-1.11-.23-1.48-1.57-2.2-2.73-1.32-4.44,3.4-8.98,6.68-13.48,10.01-3.59,2.66-6.64,4.88-6.65,9.78,0,3.71-.06,7.41-.12,11.12h0Z"
  />
  <path
    d="M23.02,26.26c-.32,21.26-6.14,57.5,22,62.42,3.28,.14,6.71,.09,9.81-.88,1.34-.62,1.76-.49,2.53,.74,6.22,7.04-16.11,11.27-20.59,11.28C-4.85,100.36,.63,53.13,0,23.91c-.12-4.13,3.86-3.2,6.88-3.31l9.98-.35c5.35-.75,6.68,.56,6.16,6.01Z"
  />
  <path
    d="M297.4,32.47c3.85-.45,7.73-.63,11.61-.48,7.18,.29,15.03,3.13,19.98,8.52,3.83,4.18,6.67,8.28,8.48,13.71,1.51,4.52,1.88,9.17,1.21,13.79-.8,5.5-2.44,10.75-6.1,15.19-4.44,5.39-9.79,9.44-16.11,12.3-3.97,1.8-8.18,2.8-12.28,4.21-.48,.16-1.01,.18-1.53,.24-1.54,.17-1.99-.09-2.4-1.59-.25-.93-.49-1.85-.85-2.76-.37-.96,.03-1.89,1.05-2.04,2.24-.32,4.1-1.59,6.18-2.31,2.04-.69,3.87-1.97,5.7-3.19,2.7-1.81,4.77-4.3,7.08-6.54,.1-.1,.21-.21,.29-.33,3.03-5.08,5.55-10.33,4.74-16.5-.45-3.44-1.84-6.34-4.59-8.72-2.35-2.03-4.87-3.52-7.82-4.16-2.71-.59-5.49-.67-8.28-.41-4.85,.45-9.54,1.68-14.01,3.45-3.03,1.2-6.16,2.23-9.07,3.78-.64,.34-1.4,.43-2.11,.63-2.29,.68-3.31-2.07-3.89-3.76-1.44-4.24-3.88-8.75-4.18-13.27-.12-1.86,.09-2.25,1.9-2.9,6.61-2.34,13.07-4.88,19.99-6.11,1.66-.29,3.32-.54,5-.74l.03-.02Z"
  />
  <path
    d="M73.61,60.8c.18-1.07,.42-2.07,1.22-2.98,7.27-8.04,14.3-16.29,21.67-24.23,3.49-2.64,14.28-18.65,17.17-17.06,4.21,2.77,7.24,7.15,10.96,10.55,2.43,2.49-1.5,5.01-3.19,6.67-7.83,7.93-16.26,15.5-23.61,23.85-2.11,5.12,7.94,9.19,10.74,12.72,6.71,5.74,13.14,11.88,20.1,17.31,.92,.67,.92,1.71,.12,2.5-3.18,1.94-9.81,12.92-13.17,8.97-9.91-8.94-20.23-17.49-30.18-26.38-3.48-4.23-10.25-6.45-11.81-11.89h0Z"
  />
  <path
    d="M372.43,33.18c3.68,0,7.37,.06,11.05-.18,1.29-.09,1.96,.4,2.12,1.71,.54,4.64,.33,9.35,.47,14,.16,5.39,.38,10.95,.85,16.38s.77,10.94,2.99,15.89c1.11,2.48,3.88,3.13,6.91,1.96,.89-.34,1.78-.68,2.63-1.13,.9-.48,1.44-.06,1.79,.66,.72,1.49,.98,3.1,.93,4.76-.03,1.05-.82,1.58-1.64,1.92-3.46,1.46-6.91,3.1-10.74,3.01-4.36-.1-8.31-1.35-11.58-4.55-3.83-3.75-6.19-8.35-8.2-13.2-1.41-3.42-2.41-7.02-3.22-10.59-2.18-9.56-2.32-18.92-2.05-28.66,.03-1.15,.68-1.74,2.07-1.83,1.89-.1,3.76-.14,5.65-.15h-.02Z"
  />
  <path
    d="M449.99,70.31c.07,1.11-.51,1.83-1.57,2.1-2.06,.53-4.15,1.02-6.2,1.59-2.19,.61-4.36,1.32-6.59,1.78-1.09,.22-2.07,.29-2.35-.99-.73-3.53-1.16-7.13-1.78-10.69-.6-3.48-1.29-6.94-2.04-10.39-.25-1.17-.52-2.35-.79-3.51-.71-3.07-1.51-6.1-2.27-9.16-.49-2-.26-3.21,1.97-3.65,3.19-.62,6.27-1.6,9.42-2.36,1.66-.4,2.05-.3,2.86,1.21,2.33,4.34,3.59,9.48,4.9,14.2,.92,3.29,1.57,6.64,2.23,9.99,.33,1.69,.67,3.38,1.05,5.06,.19,.84,.38,1.68,.59,2.51,.19,.73,.5,1.5,.56,2.25v.07h.02Z"
  />
  <path
    d="M307.07,26.31c-3.93,.19-6.77-.63-9.44-2.76-2.54-2.02-4.55-4.26-5.12-7.45-.75-4.18-.32-8.18,2.63-11.62,7.72-9.01,22.11-3.32,24.82,7.31,.43,1.71,.25,3.57-.42,5.24-1.35,3.39-3.55,6.2-6.79,7.87-1.91,.98-4.08,1.61-5.67,1.41h0Z"
  />
  <path
    d="M130.91,56.78c-.86,0-1.74-.17-2.62-.57-3.37-1.52-4.86-5.48-3.97-8.99,.9-3.56,2.74-6.7,4.39-9.92,.93-1.83,2.49-1.8,3.51-.05,1.86,3.21,4.14,6.4,5.24,10.04,.54,1.77,.77,3.29-.03,5.01-1.24,2.62-3.76,4.47-6.51,4.48h-.02Z"
  />
  <path
    d="M149.86,35.94c-.04,2.12-.78,4.1-2.64,5.68-2.76,2.36-7.21,1.36-8.7-2-.82-1.84-1.05-3.81-.54-5.66,1-3.71,2.25-7.37,4.11-10.76,.76-1.37,2-1.53,2.74-.31,2.09,3.43,5.13,8.56,5.04,13.05h0Z"
  />
  <path
    d="M347.94,130.23l-.04-2.28c-.03-1.61,.17-3.28,2.23-3.08,1.6,.16,1.53,1.77,1.55,3,.03,1.9,.05,3.79,.08,5.69,.02,1.07-.14,2.34-1.44,2.49-2.2,.23-2.3-1.76-2.33-3.4l-.04-2.42h-.01Z"
  />
  <path
    d="M349.97,118.07c1.18,.16,1.8,.88,1.78,2.08-.01,1.13-.8,1.83-1.78,1.86-1.13,.04-2-.69-1.96-1.92,.03-1.14,.66-1.93,1.97-2.02h-.01Z"
  />
  <path
    d="M328.56,128.72c-.05,1.78-.45,3.59-1.37,5.07-1.05,1.71-2.87,2.45-4.82,2.45s-3.93-1-5.01-2.69c-1.01-1.57-1.03-3.54-.94-5.35,.09-1.65-.05-3.19,1.98-3.32,1.51-.09,1.85,1.06,1.82,2.35-.04,1.61-.5,5.74,2.13,5.51,4.25-.37-.06-7.89,3.99-7.88,1.26,0,2.01,.66,2.15,1.9,.07,.64,.1,1.29,.08,1.95h-.01Z"
  />
  <path
    d="M124.42,121.14c-.02,.73-.06,1.45-.06,2.17-.01,.4-.03,.9,.27,1.21,.39,.39,1.06,.28,1.55,.25,1.93-.11,4.04,.15,5.44,1.62,1.14,1.18,1.53,2.79,1.61,4.39,.04,.8,.01,1.59-.02,2.39-.01,.39-.02,.78-.03,1.17-.01,.43,.06,.89-.16,1.29-.32,.57-1.06,.64-1.64,.63-1.36-.02-2.2-.34-2.15-1.88,.04-1.3-.02-2.62,.02-3.93,.04-1.28-.91-2.28-2.15-2.47-1.36-.2-2.41,.8-2.6,2.12-.12,.83-.15,1.67-.15,2.51s.22,1.7,.02,2.5c-.22,.88-1.01,1.22-1.85,1.21-1.13-.02-1.84-.42-1.85-1.64l-.08-8.69c-.01-1.24-.05-2.49-.03-3.73,0-.76-.04-1.55-.05-2.31-.01-.72-.09-1.57,.29-2.21,.33-.57,1-.74,1.61-.74,.82,0,1.74,.36,1.96,1.24,.13,.55,.07,1.21,.07,1.78,0,.37,0,.75-.02,1.12h0Z"
  />
  <path
    d="M222.69,128.86c-.05,1.78-.45,3.59-1.37,5.07-1.05,1.71-2.87,2.45-4.82,2.45s-3.93-1-5.01-2.69c-1.01-1.57-1.03-3.54-.94-5.35,.09-1.65-.05-3.19,1.98-3.32,1.51-.09,1.85,1.06,1.82,2.35-.04,1.61-.5,5.74,2.13,5.51,4.25-.37-.06-7.89,3.99-7.88,1.26,0,2.01,.66,2.15,1.9,.07,.64,.1,1.29,.08,1.95h-.01Z"
  />
  <path
    d="M95.93,128.07c-.04,.22,.16,.42,.31,.55,.19,.16,.42,.27,.64,.37,.38,.18,.8,.29,1.21,.4,1.91,.52,3.05,1.8,2.92,3.74-.24,3.73-5.54,4.02-7.99,2.43-.7-.45-1.8-.85-.96-1.94,.63-.81,1.31-2.1,2.72-.92,.26,.22,.56,.42,.89,.55,.49,.18,1.09,.33,1.37-.26,.32-.67-.26-.91-.75-1.11-.72-.29-1.47-.51-2.17-.85-1.43-.7-1.99-1.86-1.77-3.44,.22-1.63,1.34-2.52,2.72-2.81,.81-.17,1.64-.26,2.47-.17,.8,.09,1.56,.37,2.27,.76,.59,.32,1.16,.67,.81,1.41-.43,.91-.94,1.98-2.36,1.37-.38-.16-.78-.36-1.2-.4-.19-.02-.38-.02-.57,0-.21,.02-.52,.09-.56,.3v.02Z"
  />
  <path
    d="M242.51,130.51c-.01-1.32-.02-2.65,.04-3.95,.09-1.69,1.61-1.71,2.87-1.23,.85,.32,1.56-.25,2.31-.55,1-.4,3.32-.33,3.23,1.14-.06,.97-.31,2.04-1.82,2.08-3.79,.09-2.73,4.48-2.95,6.96-.07,.81-.71,1.25-1.48,1.29-.64,.03-1.49-.07-1.92-.61-.46-.58-.26-1.7-.26-2.41,0-.91,0-1.82-.01-2.74h0Z"
  />
  <path
    d="M153.84,130.45l-.04-2.28c-.03-1.61,.17-3.28,2.23-3.08,1.6,.16,1.53,1.77,1.55,3,.03,1.9,.05,3.79,.08,5.69,.02,1.07-.14,2.34-1.44,2.49-2.2,.23-2.3-1.76-2.33-3.4l-.04-2.42h-.01Z"
  />
  <path
    d="M155.87,118.29c1.18,.16,1.8,.88,1.78,2.08-.01,1.13-.8,1.83-1.78,1.86-1.13,.04-2-.69-1.96-1.92,.03-1.14,.66-1.93,1.97-2.02h-.01Z"
  />
  <path
    d="M188.57,132.21c-.49-.21-1.03-.36-1.55-.46-1.07-.2-2.16-.23-3.22-.38,1.05-.24,2.11-.52,3.07-.99s1.85-1.17,2.4-2.11c.54-.95,.7-2.09,.63-3.18-.06-1.16-.26-2.28,.34-3.36,.23-.4,.47-.94,.06-1.31-.31-.28-.82-.34-1.22-.3-1.59,.16-3.17,.37-4.76,.63-1.02,.16-2.06,.35-2.95,.84-1.65,.9-2.68,2.91-2.28,4.75,.22,1.01,.83,1.92,.92,2.95,.12,1.27-.56,2.47-1.13,3.63-.39,.8-.73,1.65-.83,2.53s.05,1.83,.58,2.55c.56,.76,1.47,1.18,2.37,1.48,2.12,.67,4.41,.74,6.56,.18,.92-.23,1.83-.6,2.51-1.26,.7-.69,1.08-1.68,1.04-2.66s-.47-1.94-1.18-2.61c-.39-.37-.86-.67-1.36-.88h-.01Zm-3.98-8.07c.28,0,.55,.02,.8,.1,1,.31,1.26,1.42,.8,2.29-.54,1.03-2,1.4-2.93,.72-.4-.29-.62-.75-.71-1.23-.19-1.19,.97-1.84,2.05-1.88h0Zm.16,12.65c-.28,0-.57-.01-.86-.03-.58-.04-1.27-.09-1.7-.54-.34-.34-.26-.98,.07-1.3,.36-.34,.96-.33,1.43-.37,.99-.09,3.31-.39,3.44,1.11,.05,.62-.48,.93-1.02,1.02-.44,.07-.9,.1-1.35,.11h-.01Z"
  />
  <path
    d="M279.89,131.93c1.68,.04,2.38-.72,2.13-2.42-.33-2.21-2.43-4.46-4.58-4.82-2.92-.49-5.33,.68-6.54,3.15-1.14,2.34-.77,5.4,.87,7,1.73,1.72,4.97,2.16,7.03,.95,.73-.42,1.81-.8,1.16-1.9-.45-.77-1.15-1.58-2.35-1.05-.91,.4-1.83,.54-2.86-.7,1.87-.44,3.52-.26,5.14-.22h0Zm-3.85-2.54h-1.75c-.08,0-.14-.04-.14-.1-.03-1.87,3.94-2.02,4.19-.16,.01,.08,.05,.25-.14,.25h-1.2s-.08,.02-.12,.02c-.07,0-.43,0-.84-.02h0Z"
  />
</svg>
